<?xml version="1.0" encoding="UTF-8" standalone="no"?>
<!DOCTYPE svg PUBLIC "-//W3C//DTD SVG 1.1//EN" "http://www.w3.org/Graphics/SVG/1.1/DTD/svg11.dtd">
<svg width="100%" height="100%" viewBox="0 0 900 300" version="1.1" xmlns="http://www.w3.org/2000/svg" xmlns:xlink="http://www.w3.org/1999/xlink" xml:space="preserve" xmlns:serif="http://www.serif.com/" style="fill-rule:evenodd;clip-rule:evenodd;stroke-linejoin:round;stroke-miterlimit:2;">
    <g id="Artboard1" transform="matrix(0.957447,0,0,0.91814,-191.489,-195.795)">
        <rect x="200" y="213.252" width="940" height="326.748" style="fill:none;"/>
        <g transform="matrix(1,0,0,1,0,-3.5477)">
            <g transform="matrix(1.08809,0,0,1.13467,199.761,151.846)">
                <path d="M732.462,310.787L732.462,284.431C735.957,289.818 743.65,291.414 748.845,291.414C764.626,291.414 773.704,280.042 773.704,265.656C773.704,251.17 763.628,239.898 748.445,239.898C742.851,239.898 736.257,242.292 732.462,247.778L731.664,240.996L720.29,240.996L720.29,310.787L732.462,310.787ZM383.145,246.081C377.459,241.094 371.67,239.598 363.975,239.598C354.982,239.598 343.21,243.587 343.21,254.971C343.21,266.154 354.284,269.545 363.576,270.243C370.571,270.643 373.369,272.043 373.369,275.442C373.369,279.041 369.072,281.44 364.475,281.34C358.979,281.24 350.992,278.341 347.5,274.442L341.513,283.136C348.697,290.617 356.481,291.913 364.275,291.913C378.357,291.913 385.44,284.432 385.44,275.742C385.44,262.663 373.668,260.568 364.375,259.97C358.079,259.57 355.181,257.77 355.181,254.571C355.181,251.471 358.379,249.672 364.175,249.672C368.872,249.672 372.869,250.771 376.362,254.071L383.145,246.081ZM609.443,247.777C606.646,242.89 600.352,239.798 593.758,239.798C579.373,239.698 568.1,248.575 568.1,265.556C568.1,282.836 578.874,291.813 593.458,291.714C598.953,291.614 606.646,288.821 609.443,283.035L610.042,290.216L621.514,290.216L621.514,240.996L609.842,240.996L609.443,247.777ZM854.299,269.944C856.196,249.672 845.91,239.498 829.433,239.498C813.455,239.498 803.269,250.271 803.269,265.256C803.269,281.04 813.355,291.514 830.332,291.514C837.822,291.514 846.31,288.92 851.503,283.534L843.713,275.842C840.917,278.742 835.025,280.442 830.532,280.442C821.944,280.442 816.651,276.042 815.852,269.944L854.299,269.944ZM208.29,239.997C192.608,239.997 182.832,251.569 182.832,265.656C182.832,279.842 192.409,291.314 208.39,291.314C224.372,291.314 234.049,279.842 234.049,265.656C234.049,251.569 223.973,239.997 208.29,239.997ZM79.768,239.997C64.086,239.997 54.309,251.569 54.309,265.656C54.309,279.842 63.886,291.314 79.868,291.314C95.849,291.314 105.526,279.842 105.526,265.656C105.526,251.569 95.45,239.997 79.768,239.997ZM398.235,228.413L398.235,241.096L389.047,241.096L389.047,251.569L398.235,251.569L398.235,272.849C398.235,285.129 405.218,291.214 415.898,290.815C419.593,290.715 422.489,290.117 425.984,288.72L422.588,278.344C420.791,279.243 418.594,279.842 416.697,279.842C412.902,279.842 410.305,277.545 410.305,272.849L410.305,251.569L423.987,251.569L423.987,241.096L410.405,241.096L410.405,227.115L398.235,228.413ZM27.646,290.216L40.815,290.216L40.815,232.196L62.985,232.196L62.985,220.225L5.477,220.225L5.477,232.196L27.646,232.196L27.646,290.216ZM782.704,220.424L782.704,290.216L794.775,290.216L794.775,220.424L782.704,220.424ZM333.213,240.796L333.213,290.216L321.04,290.216L321.04,240.796L333.213,240.796ZM539.334,257.669L529.647,240.996L515.067,240.996L515.067,241.396L531.245,265.257L514.068,289.916L514.068,290.216L528.648,290.216L539.334,273.743L550.019,290.216L564.599,290.216L564.599,289.916L547.422,265.257L563.6,241.396L563.6,240.996L549.02,240.996L539.334,257.669ZM676.738,290.216L676.738,263.852C676.738,257.361 680.835,251.669 687.43,251.669C694.025,251.669 696.723,257.161 696.723,263.652L696.723,290.216L708.893,290.216L708.893,263.652C708.893,248.876 702.01,240.297 688.029,240.297C681.634,240.297 675.94,242.292 671.55,249.275C668.757,242.493 662.868,240.097 656.973,240.097C652.277,240.097 646.581,241.894 643.983,246.886L643.085,240.896L631.812,240.896L631.812,290.216L643.983,290.216L643.983,263.859C643.983,257.369 647.88,251.479 654.475,251.479C661.17,251.479 664.567,257.369 664.567,263.859L664.567,290.216L676.738,290.216ZM263.52,220.225L263.52,290.216L312.64,290.216L312.64,278.045L276.69,278.045L276.69,220.225L263.52,220.225ZM506.273,277.246L467.027,277.246L467.027,261.455L504.875,261.455L504.875,249.185L467.027,249.185L467.027,232.995L506.273,232.995L506.273,220.225L453.958,220.225L453.958,290.216L506.273,290.216L506.273,277.246ZM141.382,220.225L113.927,220.225L113.927,290.216L141.382,290.216C165.853,290.216 176.628,272.34 176.328,254.62C176.029,237.3 165.354,220.225 141.382,220.225ZM594.857,250.67C614.032,250.67 614.032,280.541 594.857,280.541C586.765,280.541 580.271,274.947 580.271,265.556C580.271,256.165 586.765,250.67 594.857,250.67ZM208.39,251.07C216.583,251.07 221.778,258.263 221.778,265.656C221.778,273.149 217.282,280.142 208.39,280.142C199.498,280.142 195.003,273.149 195.003,265.656C195.003,258.263 199.598,251.07 208.39,251.07ZM79.868,251.07C88.06,251.07 93.255,258.263 93.255,265.656C93.255,273.149 88.76,280.142 79.868,280.142C70.976,280.142 66.48,273.149 66.48,265.656C66.48,258.263 71.076,251.07 79.868,251.07ZM747.546,279.643C739.254,279.643 733.559,273.349 733.559,265.656C733.559,257.963 738.754,251.669 747.546,251.669C756.338,251.669 761.533,257.963 761.533,265.656C761.533,273.349 755.838,279.643 747.546,279.643ZM126.996,232.695L141.382,232.695C156.566,232.695 162.959,243.607 163.259,254.519C163.558,265.932 157.265,277.546 141.382,277.546L126.996,277.546L126.996,232.695ZM816.052,259.87C817.849,253.471 823.242,250.271 829.833,250.271C836.823,250.271 841.816,253.471 842.615,259.87L816.052,259.87ZM319.943,227.115C319.943,231.859 323.535,234.23 327.126,234.23C330.718,234.23 334.31,231.859 334.31,227.115C334.31,217.628 319.943,217.628 319.943,227.115Z" style="fill:rgb(191,191,191);fill-rule:nonzero;"/>
            </g>
            <g transform="matrix(1.39102,0,0,1.39102,-228.295,-146.886)">
                <g transform="matrix(1.04444,0,0,1.08916,546.756,280.82)">
                    <path d="M40,8C57.673,8 72,22.327 72,40C72,57.673 57.673,72 40,72C22.327,72 8,57.673 8,40C8,22.327 22.327,8 40,8Z" style="fill:rgb(247,59,149);fill-rule:nonzero;"/>
                </g>
                <g transform="matrix(1.04444,0,0,1.08916,546.756,280.82)">
                    <path d="M40.076,14.248C54.383,14.248 65.981,25.846 65.981,40.153C65.981,54.46 54.383,66.058 40.076,66.058C25.769,66.058 14.171,54.46 14.171,40.153C14.171,25.846 25.769,14.248 40.076,14.248Z" style="fill:rgb(189,57,156);fill-rule:nonzero;"/>
                </g>
                <g transform="matrix(1.04444,0,0,1.08916,546.756,280.82)">
                    <path d="M40.076,21.106C50.595,21.106 59.123,29.633 59.123,40.153C59.123,50.673 50.595,59.201 40.076,59.201C29.556,59.201 21.028,50.673 21.028,40.153C21.028,29.633 29.556,21.106 40.076,21.106Z" style="fill:rgb(147,56,142);fill-rule:nonzero;"/>
                </g>
                <g transform="matrix(1.04444,0,0,1.08916,546.756,280.82)">
                    <path d="M39.924,26.895C47.077,26.895 52.876,32.694 52.876,39.847C52.876,47 47.077,52.799 39.924,52.799C32.771,52.799 26.972,47 26.972,39.847C26.972,32.694 32.771,26.895 39.924,26.895Z" style="fill:rgb(96,48,162);fill-rule:nonzero;"/>
                </g>
                <g transform="matrix(1.04444,0,0,1.08916,535.267,280.82)">
                    <path d="M98.977,57.5L111.328,57.5C114.703,57.5 117.586,56.828 119.977,55.484C122.383,54.141 124.219,52.203 125.484,49.672C126.766,47.125 127.406,44.07 127.406,40.508L127.406,40.461C127.406,36.898 126.766,33.867 125.484,31.367C124.203,28.867 122.367,26.961 119.977,25.648C117.586,24.336 114.703,23.68 111.328,23.68L98.977,23.68L98.977,57.5ZM105.023,52.414L105.023,28.766L110.695,28.766C112.945,28.766 114.852,29.219 116.414,30.125C117.992,31.016 119.188,32.336 120,34.086C120.828,35.836 121.242,37.969 121.242,40.484L121.242,40.531C121.242,43.109 120.836,45.281 120.023,47.047C119.211,48.797 118.023,50.133 116.461,51.055C114.898,51.961 112.977,52.414 110.695,52.414L105.023,52.414ZM142.067,57.992C143.676,57.992 145.114,57.781 146.379,57.359C147.645,56.922 148.739,56.336 149.661,55.602C150.583,54.867 151.317,54.047 151.864,53.141C152.411,52.219 152.786,51.281 152.989,50.328L153.036,50.07L147.598,50.07L147.551,50.234C147.364,50.797 147.028,51.32 146.543,51.805C146.075,52.289 145.473,52.688 144.739,53C144.004,53.297 143.153,53.445 142.184,53.445C140.887,53.445 139.77,53.164 138.833,52.602C137.895,52.023 137.168,51.203 136.653,50.141C136.153,49.063 135.903,47.766 135.903,46.25L135.903,44C135.903,42.438 136.153,41.109 136.653,40.016C137.168,38.922 137.872,38.102 138.762,37.555C139.668,36.992 140.7,36.711 141.856,36.711C142.997,36.711 144.004,36.984 144.879,37.531C145.754,38.063 146.442,38.867 146.942,39.945C147.442,41.023 147.692,42.375 147.692,44L147.692,46.25L150.504,42.617L132.997,42.617L132.997,46.508L153.293,46.508L153.293,44.633C153.293,42.133 152.825,39.945 151.887,38.07C150.965,36.195 149.637,34.742 147.903,33.711C146.184,32.664 144.145,32.141 141.786,32.141C139.411,32.141 137.348,32.68 135.598,33.758C133.864,34.836 132.512,36.352 131.543,38.305C130.59,40.242 130.114,42.516 130.114,45.125L130.114,45.148C130.114,47.773 130.59,50.047 131.543,51.969C132.497,53.891 133.864,55.375 135.645,56.422C137.442,57.469 139.583,57.992 142.067,57.992ZM165.751,57.992C166.36,57.992 166.907,57.969 167.392,57.922C167.892,57.875 168.313,57.828 168.657,57.781L168.657,53.398C168.454,53.414 168.235,53.438 168.001,53.469C167.782,53.484 167.524,53.492 167.228,53.492C166.181,53.492 165.384,53.266 164.837,52.813C164.306,52.344 164.04,51.508 164.04,50.305L164.04,37.156L168.657,37.156L168.657,32.656L164.04,32.656L164.04,26.352L158.11,26.352L158.11,32.656L154.595,32.656L154.595,37.156L158.11,37.156L158.11,50.773C158.11,53.336 158.735,55.18 159.985,56.305C161.251,57.43 163.173,57.992 165.751,57.992ZM179.193,57.922C180.287,57.922 181.31,57.75 182.263,57.406C183.232,57.063 184.091,56.57 184.841,55.93C185.591,55.289 186.201,54.539 186.669,53.68L186.81,53.68L186.81,57.5L192.622,57.5L192.622,40.414C192.622,38.742 192.201,37.289 191.357,36.055C190.529,34.82 189.349,33.859 187.818,33.172C186.302,32.484 184.505,32.141 182.427,32.141C180.333,32.141 178.521,32.477 176.99,33.148C175.474,33.82 174.287,34.742 173.427,35.914C172.568,37.07 172.076,38.383 171.951,39.852L171.927,40.133L177.318,40.133L177.365,39.922C177.568,39 178.083,38.25 178.912,37.672C179.74,37.078 180.841,36.781 182.216,36.781C183.701,36.781 184.833,37.148 185.615,37.883C186.412,38.602 186.81,39.586 186.81,40.836L186.81,48.289C186.81,49.273 186.552,50.156 186.037,50.938C185.521,51.719 184.818,52.336 183.927,52.789C183.052,53.242 182.052,53.469 180.927,53.469C179.646,53.469 178.615,53.18 177.833,52.602C177.068,52.008 176.685,51.203 176.685,50.188L176.685,50.164C176.685,49.18 177.068,48.391 177.833,47.797C178.599,47.203 179.701,46.859 181.138,46.766L189.81,46.227L189.81,42.359L180.318,42.945C177.318,43.117 174.99,43.852 173.333,45.148C171.693,46.43 170.872,48.172 170.872,50.375L170.872,50.422C170.872,51.891 171.216,53.195 171.904,54.336C172.607,55.461 173.583,56.344 174.833,56.984C176.099,57.609 177.552,57.922 179.193,57.922Z" style="fill:rgb(153,153,153);fill-rule:nonzero;"/>
                </g>
            </g>
        </g>
    </g>
</svg>
